<mxfile>
    <diagram id="AuettWWO7xxf1hah0vhw" name="Page-1">
        <mxGraphModel dx="4057" dy="2985" grid="1" gridSize="10" guides="1" tooltips="1" connect="1" arrows="1" fold="1" page="1" pageScale="1" pageWidth="850" pageHeight="1100" math="0" shadow="0">
            <root>
                <mxCell id="0"/>
                <mxCell id="1" parent="0"/>
                <mxCell id="Ws_V9kZGMgfKLOU-RoWJ-25" value="" style="rounded=0;whiteSpace=wrap;html=1;" parent="1" vertex="1">
                    <mxGeometry x="-800" y="-1040" width="1200" height="930" as="geometry"/>
                </mxCell>
                <mxCell id="Ws_V9kZGMgfKLOU-RoWJ-23" value="" style="rounded=0;whiteSpace=wrap;html=1;fillColor=#f5f5f5;strokeColor=#666666;fontColor=#333333;" parent="1" vertex="1">
                    <mxGeometry x="-760" y="-990" width="1120" height="810" as="geometry"/>
                </mxCell>
                <mxCell id="d-sc0Rdw2SUb3iMjITWR-58" value="" style="rounded=0;whiteSpace=wrap;html=1;fillColor=#dae8fc;strokeColor=#6c8ebf;" parent="1" vertex="1">
                    <mxGeometry x="-480" y="-930" width="800" height="380" as="geometry"/>
                </mxCell>
                <mxCell id="d-sc0Rdw2SUb3iMjITWR-28" style="edgeStyle=orthogonalEdgeStyle;rounded=0;orthogonalLoop=1;jettySize=auto;html=1;exitX=1;exitY=0.5;exitDx=0;exitDy=0;entryX=0;entryY=0.5;entryDx=0;entryDy=0;" parent="1" source="d-sc0Rdw2SUb3iMjITWR-1" target="d-sc0Rdw2SUb3iMjITWR-22" edge="1">
                    <mxGeometry relative="1" as="geometry"/>
                </mxCell>
                <mxCell id="d-sc0Rdw2SUb3iMjITWR-56" style="edgeStyle=orthogonalEdgeStyle;rounded=0;orthogonalLoop=1;jettySize=auto;html=1;exitX=0.25;exitY=1;exitDx=0;exitDy=0;entryX=0;entryY=0.5;entryDx=0;entryDy=0;" parent="1" source="d-sc0Rdw2SUb3iMjITWR-1" target="d-sc0Rdw2SUb3iMjITWR-2" edge="1">
                    <mxGeometry relative="1" as="geometry">
                        <Array as="points">
                            <mxPoint x="-380" y="-610"/>
                            <mxPoint x="-450" y="-610"/>
                            <mxPoint x="-450" y="-710"/>
                        </Array>
                    </mxGeometry>
                </mxCell>
                <mxCell id="d-sc0Rdw2SUb3iMjITWR-1" value="Instruction&lt;br&gt;Fetch" style="rounded=0;whiteSpace=wrap;html=1;fillColor=#ffe6cc;strokeColor=#d79b00;" parent="1" vertex="1">
                    <mxGeometry x="-400" y="-790" width="80" height="160" as="geometry"/>
                </mxCell>
                <mxCell id="d-sc0Rdw2SUb3iMjITWR-27" style="edgeStyle=orthogonalEdgeStyle;rounded=0;orthogonalLoop=1;jettySize=auto;html=1;exitX=1;exitY=0.5;exitDx=0;exitDy=0;entryX=0;entryY=0.5;entryDx=0;entryDy=0;" parent="1" source="d-sc0Rdw2SUb3iMjITWR-4" target="d-sc0Rdw2SUb3iMjITWR-24" edge="1">
                    <mxGeometry relative="1" as="geometry"/>
                </mxCell>
                <mxCell id="d-sc0Rdw2SUb3iMjITWR-48" style="edgeStyle=orthogonalEdgeStyle;rounded=0;orthogonalLoop=1;jettySize=auto;html=1;exitX=0.75;exitY=0;exitDx=0;exitDy=0;entryX=0;entryY=0.5;entryDx=0;entryDy=0;" parent="1" source="d-sc0Rdw2SUb3iMjITWR-4" target="d-sc0Rdw2SUb3iMjITWR-43" edge="1">
                    <mxGeometry relative="1" as="geometry">
                        <Array as="points">
                            <mxPoint x="-190" y="-860"/>
                        </Array>
                    </mxGeometry>
                </mxCell>
                <mxCell id="d-sc0Rdw2SUb3iMjITWR-54" style="edgeStyle=orthogonalEdgeStyle;rounded=0;orthogonalLoop=1;jettySize=auto;html=1;exitX=0.5;exitY=0;exitDx=0;exitDy=0;entryX=1;entryY=0.75;entryDx=0;entryDy=0;" parent="1" source="d-sc0Rdw2SUb3iMjITWR-4" target="d-sc0Rdw2SUb3iMjITWR-49" edge="1">
                    <mxGeometry relative="1" as="geometry"/>
                </mxCell>
                <mxCell id="d-sc0Rdw2SUb3iMjITWR-4" value="Instruction&lt;br&gt;Decode" style="rounded=0;whiteSpace=wrap;html=1;fillColor=#ffe6cc;strokeColor=#d79b00;" parent="1" vertex="1">
                    <mxGeometry x="-250" y="-790" width="80" height="160" as="geometry"/>
                </mxCell>
                <mxCell id="d-sc0Rdw2SUb3iMjITWR-32" style="edgeStyle=orthogonalEdgeStyle;rounded=0;orthogonalLoop=1;jettySize=auto;html=1;exitX=1;exitY=0.5;exitDx=0;exitDy=0;entryX=0;entryY=0.5;entryDx=0;entryDy=0;" parent="1" source="d-sc0Rdw2SUb3iMjITWR-8" target="d-sc0Rdw2SUb3iMjITWR-29" edge="1">
                    <mxGeometry relative="1" as="geometry"/>
                </mxCell>
                <mxCell id="d-sc0Rdw2SUb3iMjITWR-55" style="edgeStyle=orthogonalEdgeStyle;rounded=0;orthogonalLoop=1;jettySize=auto;html=1;exitX=0.5;exitY=1;exitDx=0;exitDy=0;entryX=0;entryY=0.5;entryDx=0;entryDy=0;" parent="1" source="d-sc0Rdw2SUb3iMjITWR-8" target="d-sc0Rdw2SUb3iMjITWR-2" edge="1">
                    <mxGeometry relative="1" as="geometry">
                        <Array as="points">
                            <mxPoint x="-60" y="-610"/>
                            <mxPoint x="-450" y="-610"/>
                            <mxPoint x="-450" y="-710"/>
                        </Array>
                    </mxGeometry>
                </mxCell>
                <mxCell id="d-sc0Rdw2SUb3iMjITWR-8" value="Execute" style="rounded=0;whiteSpace=wrap;html=1;fillColor=#ffe6cc;strokeColor=#d79b00;" parent="1" vertex="1">
                    <mxGeometry x="-100" y="-790" width="80" height="160" as="geometry"/>
                </mxCell>
                <mxCell id="d-sc0Rdw2SUb3iMjITWR-35" style="edgeStyle=orthogonalEdgeStyle;rounded=0;orthogonalLoop=1;jettySize=auto;html=1;exitX=1;exitY=0.5;exitDx=0;exitDy=0;" parent="1" source="d-sc0Rdw2SUb3iMjITWR-12" target="d-sc0Rdw2SUb3iMjITWR-33" edge="1">
                    <mxGeometry relative="1" as="geometry"/>
                </mxCell>
                <mxCell id="d-sc0Rdw2SUb3iMjITWR-12" value="Memory" style="rounded=0;whiteSpace=wrap;html=1;fillColor=#ffe6cc;strokeColor=#d79b00;" parent="1" vertex="1">
                    <mxGeometry x="50" y="-790" width="80" height="160" as="geometry"/>
                </mxCell>
                <mxCell id="d-sc0Rdw2SUb3iMjITWR-36" style="edgeStyle=orthogonalEdgeStyle;rounded=0;orthogonalLoop=1;jettySize=auto;html=1;exitX=1;exitY=0.5;exitDx=0;exitDy=0;entryX=0.5;entryY=1;entryDx=0;entryDy=0;" parent="1" source="d-sc0Rdw2SUb3iMjITWR-16" target="d-sc0Rdw2SUb3iMjITWR-38" edge="1">
                    <mxGeometry relative="1" as="geometry">
                        <Array as="points">
                            <mxPoint x="290" y="-710"/>
                            <mxPoint x="290" y="-590"/>
                            <mxPoint x="-210" y="-590"/>
                        </Array>
                    </mxGeometry>
                </mxCell>
                <mxCell id="d-sc0Rdw2SUb3iMjITWR-16" value="Write&lt;br&gt;Back" style="rounded=0;whiteSpace=wrap;html=1;fillColor=#ffe6cc;strokeColor=#d79b00;" parent="1" vertex="1">
                    <mxGeometry x="190" y="-790" width="80" height="160" as="geometry"/>
                </mxCell>
                <mxCell id="d-sc0Rdw2SUb3iMjITWR-22" value="" style="rounded=0;whiteSpace=wrap;html=1;fillColor=#e1d5e7;strokeColor=#9673a6;" parent="1" vertex="1">
                    <mxGeometry x="-280" y="-790" width="30" height="160" as="geometry"/>
                </mxCell>
                <mxCell id="d-sc0Rdw2SUb3iMjITWR-23" value="" style="triangle;whiteSpace=wrap;html=1;rotation=-90;fillColor=#e1d5e7;strokeColor=#9673a6;" parent="1" vertex="1">
                    <mxGeometry x="-270" y="-640" width="10" height="10" as="geometry"/>
                </mxCell>
                <mxCell id="d-sc0Rdw2SUb3iMjITWR-50" style="edgeStyle=orthogonalEdgeStyle;rounded=0;orthogonalLoop=1;jettySize=auto;html=1;exitX=0.5;exitY=0;exitDx=0;exitDy=0;entryX=1;entryY=0.25;entryDx=0;entryDy=0;" parent="1" source="d-sc0Rdw2SUb3iMjITWR-24" target="d-sc0Rdw2SUb3iMjITWR-49" edge="1">
                    <mxGeometry relative="1" as="geometry"/>
                </mxCell>
                <mxCell id="d-sc0Rdw2SUb3iMjITWR-46" style="edgeStyle=orthogonalEdgeStyle;rounded=0;orthogonalLoop=1;jettySize=auto;html=1;exitX=0.5;exitY=0;exitDx=0;exitDy=0;entryX=0.466;entryY=1;entryDx=0;entryDy=0;entryPerimeter=0;" parent="1" source="d-sc0Rdw2SUb3iMjITWR-29" target="d-sc0Rdw2SUb3iMjITWR-43" edge="1">
                    <mxGeometry relative="1" as="geometry"/>
                </mxCell>
                <mxCell id="d-sc0Rdw2SUb3iMjITWR-29" value="" style="rounded=0;whiteSpace=wrap;html=1;fillColor=#e1d5e7;strokeColor=#9673a6;" parent="1" vertex="1">
                    <mxGeometry x="20" y="-790" width="30" height="160" as="geometry"/>
                </mxCell>
                <mxCell id="d-sc0Rdw2SUb3iMjITWR-30" value="" style="triangle;whiteSpace=wrap;html=1;rotation=-90;" parent="1" vertex="1">
                    <mxGeometry x="30" y="-640" width="10" height="10" as="geometry"/>
                </mxCell>
                <mxCell id="d-sc0Rdw2SUb3iMjITWR-45" style="edgeStyle=orthogonalEdgeStyle;rounded=0;orthogonalLoop=1;jettySize=auto;html=1;exitX=0.5;exitY=0;exitDx=0;exitDy=0;entryX=0.948;entryY=1;entryDx=0;entryDy=0;entryPerimeter=0;" parent="1" source="d-sc0Rdw2SUb3iMjITWR-33" target="d-sc0Rdw2SUb3iMjITWR-43" edge="1">
                    <mxGeometry relative="1" as="geometry"/>
                </mxCell>
                <mxCell id="d-sc0Rdw2SUb3iMjITWR-33" value="" style="rounded=0;whiteSpace=wrap;html=1;fillColor=#e1d5e7;strokeColor=#9673a6;" parent="1" vertex="1">
                    <mxGeometry x="160" y="-790" width="30" height="160" as="geometry"/>
                </mxCell>
                <mxCell id="d-sc0Rdw2SUb3iMjITWR-34" value="" style="triangle;whiteSpace=wrap;html=1;rotation=-90;fillColor=#e1d5e7;strokeColor=#9673a6;" parent="1" vertex="1">
                    <mxGeometry x="170" y="-640" width="10" height="10" as="geometry"/>
                </mxCell>
                <mxCell id="d-sc0Rdw2SUb3iMjITWR-37" value="Branch&lt;br&gt;Prediction" style="rounded=0;whiteSpace=wrap;html=1;fillColor=#fff2cc;strokeColor=#d6b656;" parent="1" vertex="1">
                    <mxGeometry x="-400" y="-790" width="80" height="50" as="geometry"/>
                </mxCell>
                <mxCell id="d-sc0Rdw2SUb3iMjITWR-38" value="Register&lt;br&gt;File" style="rounded=0;whiteSpace=wrap;html=1;fillColor=#e1d5e7;strokeColor=#9673a6;" parent="1" vertex="1">
                    <mxGeometry x="-250" y="-680" width="80" height="50" as="geometry"/>
                </mxCell>
                <mxCell id="d-sc0Rdw2SUb3iMjITWR-39" value="" style="triangle;whiteSpace=wrap;html=1;rotation=-180;fillColor=#e1d5e7;strokeColor=#9673a6;" parent="1" vertex="1">
                    <mxGeometry x="-180" y="-660" width="10" height="10" as="geometry"/>
                </mxCell>
                <mxCell id="d-sc0Rdw2SUb3iMjITWR-40" value="ALU" style="rounded=0;whiteSpace=wrap;html=1;fillColor=#fff2cc;strokeColor=#d6b656;" parent="1" vertex="1">
                    <mxGeometry x="-100" y="-790" width="80" height="50" as="geometry"/>
                </mxCell>
                <mxCell id="d-sc0Rdw2SUb3iMjITWR-42" value="" style="triangle;whiteSpace=wrap;html=1;rotation=-90;fillColor=#e1d5e7;strokeColor=#9673a6;" parent="1" vertex="1">
                    <mxGeometry x="30" y="-640" width="10" height="10" as="geometry"/>
                </mxCell>
                <mxCell id="d-sc0Rdw2SUb3iMjITWR-47" style="edgeStyle=orthogonalEdgeStyle;rounded=0;orthogonalLoop=1;jettySize=auto;html=1;exitX=0.25;exitY=1;exitDx=0;exitDy=0;entryX=0.5;entryY=0;entryDx=0;entryDy=0;" parent="1" source="d-sc0Rdw2SUb3iMjITWR-43" target="d-sc0Rdw2SUb3iMjITWR-40" edge="1">
                    <mxGeometry relative="1" as="geometry">
                        <Array as="points">
                            <mxPoint x="-60" y="-830"/>
                        </Array>
                    </mxGeometry>
                </mxCell>
                <mxCell id="d-sc0Rdw2SUb3iMjITWR-43" value="Forwarding Unit" style="rounded=0;whiteSpace=wrap;html=1;fillColor=#f8cecc;strokeColor=#b85450;" parent="1" vertex="1">
                    <mxGeometry x="-100" y="-890" width="290" height="60" as="geometry"/>
                </mxCell>
                <mxCell id="d-sc0Rdw2SUb3iMjITWR-52" style="edgeStyle=orthogonalEdgeStyle;rounded=0;orthogonalLoop=1;jettySize=auto;html=1;exitX=0;exitY=0.5;exitDx=0;exitDy=0;entryX=0.5;entryY=0;entryDx=0;entryDy=0;" parent="1" source="d-sc0Rdw2SUb3iMjITWR-49" target="d-sc0Rdw2SUb3iMjITWR-2" edge="1">
                    <mxGeometry relative="1" as="geometry">
                        <Array as="points">
                            <mxPoint x="-415" y="-860"/>
                        </Array>
                    </mxGeometry>
                </mxCell>
                <mxCell id="d-sc0Rdw2SUb3iMjITWR-53" style="edgeStyle=orthogonalEdgeStyle;rounded=0;orthogonalLoop=1;jettySize=auto;html=1;exitX=0.75;exitY=1;exitDx=0;exitDy=0;entryX=0.5;entryY=0;entryDx=0;entryDy=0;" parent="1" source="d-sc0Rdw2SUb3iMjITWR-49" target="d-sc0Rdw2SUb3iMjITWR-22" edge="1">
                    <mxGeometry relative="1" as="geometry">
                        <Array as="points">
                            <mxPoint x="-265" y="-830"/>
                        </Array>
                    </mxGeometry>
                </mxCell>
                <mxCell id="d-sc0Rdw2SUb3iMjITWR-49" value="Hazard Detection&lt;br&gt;Unit" style="rounded=0;whiteSpace=wrap;html=1;fillColor=#f8cecc;strokeColor=#b85450;" parent="1" vertex="1">
                    <mxGeometry x="-400" y="-890" width="160" height="60" as="geometry"/>
                </mxCell>
                <mxCell id="d-sc0Rdw2SUb3iMjITWR-57" value="" style="endArrow=classic;startArrow=classic;html=1;" parent="1" edge="1">
                    <mxGeometry width="50" height="50" relative="1" as="geometry">
                        <mxPoint x="90" y="-550" as="sourcePoint"/>
                        <mxPoint x="89.57999999999993" y="-630" as="targetPoint"/>
                    </mxGeometry>
                </mxCell>
                <mxCell id="d-sc0Rdw2SUb3iMjITWR-59" value="RVPipeline" style="text;html=1;align=center;verticalAlign=middle;resizable=0;points=[];autosize=1;fontStyle=1;fontSize=22;" parent="1" vertex="1">
                    <mxGeometry x="190" y="-930" width="130" height="30" as="geometry"/>
                </mxCell>
                <mxCell id="d-sc0Rdw2SUb3iMjITWR-60" value="" style="endArrow=classic;html=1;fontSize=22;" parent="1" edge="1">
                    <mxGeometry width="50" height="50" relative="1" as="geometry">
                        <mxPoint x="-480" y="-710" as="sourcePoint"/>
                        <mxPoint x="-430" y="-710.24" as="targetPoint"/>
                    </mxGeometry>
                </mxCell>
                <mxCell id="d-sc0Rdw2SUb3iMjITWR-61" value="&lt;font style=&quot;font-size: 11px&quot;&gt;Instruction Bus&lt;/font&gt;" style="text;html=1;align=center;verticalAlign=middle;resizable=0;points=[];autosize=1;fontSize=11;" parent="1" vertex="1">
                    <mxGeometry x="-480" y="-600" width="90" height="20" as="geometry"/>
                </mxCell>
                <mxCell id="d-sc0Rdw2SUb3iMjITWR-62" value="&lt;font style=&quot;font-size: 11px&quot;&gt;System Bus&lt;/font&gt;" style="text;html=1;align=center;verticalAlign=middle;resizable=0;points=[];autosize=1;fontSize=11;" parent="1" vertex="1">
                    <mxGeometry x="90" y="-570" width="70" height="20" as="geometry"/>
                </mxCell>
                <mxCell id="d-sc0Rdw2SUb3iMjITWR-63" value="&lt;font style=&quot;font-size: 11px;&quot;&gt;IRQ&lt;/font&gt;" style="text;html=1;align=center;verticalAlign=middle;resizable=0;points=[];autosize=1;fontSize=11;" parent="1" vertex="1">
                    <mxGeometry x="-480" y="-730" width="40" height="20" as="geometry"/>
                </mxCell>
                <mxCell id="Ws_V9kZGMgfKLOU-RoWJ-2" value="" style="endArrow=classic;startArrow=classic;html=1;" parent="1" edge="1">
                    <mxGeometry width="50" height="50" relative="1" as="geometry">
                        <mxPoint x="-520" y="-580" as="sourcePoint"/>
                        <mxPoint x="-480" y="-580" as="targetPoint"/>
                    </mxGeometry>
                </mxCell>
                <mxCell id="Ws_V9kZGMgfKLOU-RoWJ-3" value="Programmable&lt;br&gt;Interrupt&lt;br&gt;Controller" style="rounded=0;whiteSpace=wrap;html=1;fillColor=#d5e8d4;strokeColor=#82b366;" parent="1" vertex="1">
                    <mxGeometry x="-660" y="-860" width="140" height="170" as="geometry"/>
                </mxCell>
                <mxCell id="Ws_V9kZGMgfKLOU-RoWJ-4" value="" style="endArrow=classic;html=1;" parent="1" edge="1">
                    <mxGeometry width="50" height="50" relative="1" as="geometry">
                        <mxPoint x="-520" y="-710.28" as="sourcePoint"/>
                        <mxPoint x="-480" y="-710.28" as="targetPoint"/>
                    </mxGeometry>
                </mxCell>
                <mxCell id="Ws_V9kZGMgfKLOU-RoWJ-5" value="Instruction&lt;br&gt;ROM" style="rounded=0;whiteSpace=wrap;html=1;fillColor=#e1d5e7;strokeColor=#9673a6;" parent="1" vertex="1">
                    <mxGeometry x="-660" y="-670" width="140" height="170" as="geometry"/>
                </mxCell>
                <mxCell id="Ws_V9kZGMgfKLOU-RoWJ-6" value="" style="endArrow=classic;html=1;" parent="1" edge="1">
                    <mxGeometry width="50" height="50" relative="1" as="geometry">
                        <mxPoint x="-340" y="-580" as="sourcePoint"/>
                        <mxPoint x="-340" y="-630" as="targetPoint"/>
                    </mxGeometry>
                </mxCell>
                <mxCell id="Ws_V9kZGMgfKLOU-RoWJ-7" value="" style="endArrow=classic;html=1;" parent="1" edge="1">
                    <mxGeometry width="50" height="50" relative="1" as="geometry">
                        <mxPoint x="-340" y="-580" as="sourcePoint"/>
                        <mxPoint x="-480" y="-580" as="targetPoint"/>
                    </mxGeometry>
                </mxCell>
                <mxCell id="Ws_V9kZGMgfKLOU-RoWJ-9" value="" style="rounded=1;whiteSpace=wrap;html=1;fillColor=#f8cecc;strokeColor=#b85450;" parent="1" vertex="1">
                    <mxGeometry x="-730" y="-860" width="30" height="410" as="geometry"/>
                </mxCell>
                <mxCell id="Ws_V9kZGMgfKLOU-RoWJ-1" value="System Bus" style="rounded=1;whiteSpace=wrap;html=1;fillColor=#f8cecc;strokeColor=#b85450;" parent="1" vertex="1">
                    <mxGeometry x="-730" y="-480" width="1050" height="30" as="geometry"/>
                </mxCell>
                <mxCell id="Ws_V9kZGMgfKLOU-RoWJ-10" value="" style="endArrow=classic;startArrow=classic;html=1;" parent="1" edge="1">
                    <mxGeometry width="50" height="50" relative="1" as="geometry">
                        <mxPoint x="-700" y="-580" as="sourcePoint"/>
                        <mxPoint x="-660" y="-580" as="targetPoint"/>
                    </mxGeometry>
                </mxCell>
                <mxCell id="Ws_V9kZGMgfKLOU-RoWJ-11" value="" style="endArrow=classic;startArrow=classic;html=1;" parent="1" edge="1">
                    <mxGeometry width="50" height="50" relative="1" as="geometry">
                        <mxPoint x="-700" y="-775.24" as="sourcePoint"/>
                        <mxPoint x="-660" y="-775.24" as="targetPoint"/>
                    </mxGeometry>
                </mxCell>
                <mxCell id="Ws_V9kZGMgfKLOU-RoWJ-12" value="" style="endArrow=classic;startArrow=classic;html=1;" parent="1" edge="1">
                    <mxGeometry width="50" height="50" relative="1" as="geometry">
                        <mxPoint x="89.51999999999998" y="-480" as="sourcePoint"/>
                        <mxPoint x="89.51999999999998" y="-550" as="targetPoint"/>
                    </mxGeometry>
                </mxCell>
                <mxCell id="Ws_V9kZGMgfKLOU-RoWJ-13" value="RAM" style="rounded=0;whiteSpace=wrap;html=1;fillColor=#e1d5e7;strokeColor=#9673a6;" parent="1" vertex="1">
                    <mxGeometry x="-660" y="-410" width="140" height="190" as="geometry"/>
                </mxCell>
                <mxCell id="Ws_V9kZGMgfKLOU-RoWJ-14" value="" style="endArrow=classic;startArrow=classic;html=1;" parent="1" edge="1">
                    <mxGeometry width="50" height="50" relative="1" as="geometry">
                        <mxPoint x="-590.24" y="-410" as="sourcePoint"/>
                        <mxPoint x="-590.24" y="-450" as="targetPoint"/>
                    </mxGeometry>
                </mxCell>
                <mxCell id="Ws_V9kZGMgfKLOU-RoWJ-15" value="UART" style="rounded=0;whiteSpace=wrap;html=1;fillColor=#ffe6cc;strokeColor=#d79b00;" parent="1" vertex="1">
                    <mxGeometry x="-170" y="-410" width="140" height="190" as="geometry"/>
                </mxCell>
                <mxCell id="Ws_V9kZGMgfKLOU-RoWJ-16" value="System&lt;br&gt;Information" style="rounded=0;whiteSpace=wrap;html=1;fillColor=#d5e8d4;strokeColor=#82b366;" parent="1" vertex="1">
                    <mxGeometry x="-380" y="-410" width="80" height="190" as="geometry"/>
                </mxCell>
                <mxCell id="Ws_V9kZGMgfKLOU-RoWJ-17" value="" style="endArrow=classic;startArrow=classic;html=1;" parent="1" edge="1">
                    <mxGeometry width="50" height="50" relative="1" as="geometry">
                        <mxPoint x="-340.2900000000002" y="-410" as="sourcePoint"/>
                        <mxPoint x="-340.2900000000002" y="-450" as="targetPoint"/>
                    </mxGeometry>
                </mxCell>
                <mxCell id="Ws_V9kZGMgfKLOU-RoWJ-18" value="" style="endArrow=classic;startArrow=classic;html=1;" parent="1" edge="1">
                    <mxGeometry width="50" height="50" relative="1" as="geometry">
                        <mxPoint x="-100.28999999999996" y="-410" as="sourcePoint"/>
                        <mxPoint x="-100.28999999999996" y="-450" as="targetPoint"/>
                    </mxGeometry>
                </mxCell>
                <mxCell id="Ws_V9kZGMgfKLOU-RoWJ-19" value="GPIO" style="rounded=0;whiteSpace=wrap;html=1;fillColor=#ffe6cc;strokeColor=#d79b00;" parent="1" vertex="1">
                    <mxGeometry x="50" y="-410" width="140" height="190" as="geometry"/>
                </mxCell>
                <mxCell id="Ws_V9kZGMgfKLOU-RoWJ-20" value="" style="endArrow=classic;startArrow=classic;html=1;" parent="1" edge="1">
                    <mxGeometry width="50" height="50" relative="1" as="geometry">
                        <mxPoint x="119.71000000000004" y="-410" as="sourcePoint"/>
                        <mxPoint x="119.71000000000004" y="-450" as="targetPoint"/>
                    </mxGeometry>
                </mxCell>
                <mxCell id="Ws_V9kZGMgfKLOU-RoWJ-21" value="" style="endArrow=classic;startArrow=classic;html=1;" parent="1" edge="1">
                    <mxGeometry width="50" height="50" relative="1" as="geometry">
                        <mxPoint x="-100.33999999999992" y="-180" as="sourcePoint"/>
                        <mxPoint x="-100.33999999999992" y="-220" as="targetPoint"/>
                    </mxGeometry>
                </mxCell>
                <mxCell id="Ws_V9kZGMgfKLOU-RoWJ-22" value="" style="endArrow=classic;startArrow=classic;html=1;" parent="1" edge="1">
                    <mxGeometry width="50" height="50" relative="1" as="geometry">
                        <mxPoint x="119.30999999999983" y="-180" as="sourcePoint"/>
                        <mxPoint x="119.30999999999983" y="-220" as="targetPoint"/>
                    </mxGeometry>
                </mxCell>
                <mxCell id="Ws_V9kZGMgfKLOU-RoWJ-24" value="RVCore" style="text;html=1;align=center;verticalAlign=middle;resizable=0;points=[];autosize=1;fontStyle=1;fontSize=22;" parent="1" vertex="1">
                    <mxGeometry x="245" y="-980" width="100" height="30" as="geometry"/>
                </mxCell>
                <mxCell id="d-sc0Rdw2SUb3iMjITWR-2" value="PC" style="rounded=0;whiteSpace=wrap;html=1;fillColor=#e1d5e7;strokeColor=#9673a6;" parent="1" vertex="1">
                    <mxGeometry x="-430" y="-790" width="30" height="160" as="geometry"/>
                </mxCell>
                <mxCell id="d-sc0Rdw2SUb3iMjITWR-3" value="" style="triangle;whiteSpace=wrap;html=1;rotation=-90;fillColor=#e1d5e7;strokeColor=#9673a6;" parent="1" vertex="1">
                    <mxGeometry x="-420" y="-640" width="10" height="10" as="geometry"/>
                </mxCell>
                <mxCell id="d-sc0Rdw2SUb3iMjITWR-24" value="" style="rounded=0;whiteSpace=wrap;html=1;fillColor=#e1d5e7;strokeColor=#9673a6;" parent="1" vertex="1">
                    <mxGeometry x="-130" y="-790" width="30" height="160" as="geometry"/>
                </mxCell>
                <mxCell id="d-sc0Rdw2SUb3iMjITWR-25" value="" style="triangle;whiteSpace=wrap;html=1;rotation=-90;fillColor=#e1d5e7;strokeColor=#9673a6;" parent="1" vertex="1">
                    <mxGeometry x="-120" y="-640" width="10" height="10" as="geometry"/>
                </mxCell>
                <mxCell id="Ws_V9kZGMgfKLOU-RoWJ-26" value="Top Level" style="text;html=1;align=center;verticalAlign=middle;resizable=0;points=[];autosize=1;fontStyle=1;fontSize=22;" parent="1" vertex="1">
                    <mxGeometry x="270" y="-1030" width="120" height="30" as="geometry"/>
                </mxCell>
            </root>
        </mxGraphModel>
    </diagram>
</mxfile>